<svg xmlns="http://www.w3.org/2000/svg" version="1.1" xmlns:xlink="http://www.w3.org/1999/xlink" xmlns:svgjs="http://svgjs.dev/svgjs" width="1440" height="1080" preserveAspectRatio="none" viewBox="0 0 1440 1080"><g mask="url(&quot;#SvgjsMask1368&quot;)" fill="none"><rect width="1440" height="1080" x="0" y="0" fill="rgba(0, 48, 39, 1)"></rect><path d="M0,492.137C122.954,496.688,243.062,602.574,356.248,554.333C469.238,506.175,532.048,374.739,557.411,254.561C580.74,144.022,497.307,42.423,488.047,-70.171C477.897,-193.591,586.815,-344.857,500.788,-433.935C413.039,-524.797,254.253,-420.973,129.59,-441.342C26.969,-458.11,-55.294,-548.24,-159.073,-541.753C-273.404,-534.607,-392.161,-491.379,-466.348,-404.092C-540.345,-317.029,-529.591,-191.405,-552.057,-79.374C-576.015,40.094,-642.749,160.152,-602.567,275.183C-561.602,392.455,-456.569,486.492,-339.693,528.573C-230.331,567.949,-116.155,487.837,0,492.137" fill="#001f19"></path><path d="M1440 1519.182C1523.596 1523.712 1597.551 1477.733 1674.669 1445.151 1768.128 1405.665 1901.785 1402.3029999999999 1939.535 1308.13 1977.725 1212.8609999999999 1867.962 1121.748 1844.348 1021.863 1823.637 934.2570000000001 1850.414 839.89 1809.84 759.531 1762.8690000000001 666.502 1702.103 554.997 1599.475 536.878 1495.464 518.515 1420.126 637.967 1320.536 673.144 1228.717 705.576 1119.446 676.6179999999999 1040.9 734.178 955.31 796.9 894.713 894.46 876.002 998.909 857.013 1104.907 869.664 1225.9850000000001 937.869 1309.316 1003.447 1389.438 1125.596 1380.647 1221.126 1420.574 1296.484 1452.07 1358.445 1514.763 1440 1519.182" fill="#004135"></path></g><defs><mask id="SvgjsMask1368"><rect width="1440" height="1080" fill="#ffffff"></rect></mask></defs></svg>