<svg xmlns="http://www.w3.org/2000/svg" version="1.1" xmlns:xlink="http://www.w3.org/1999/xlink" xmlns:svgjs="http://svgjs.dev/svgjs" width="1440" height="1080" preserveAspectRatio="none" viewBox="0 0 1440 1080"><g mask="url(&quot;#SvgjsMask1051&quot;)" fill="none"><rect width="1440" height="1080" x="0" y="0" fill="rgba(37, 211, 102, 0.57)"></rect><path d="M0,492.594C98.992,491.901,194.205,480.582,287.406,447.213C402.851,405.88,558.883,389.893,604.622,276.122C650.821,161.205,541.021,44.034,495.858,-71.294C461.182,-159.843,430.889,-247.588,370.705,-321.217C309.118,-396.563,233.846,-455.962,146.449,-498.761C45.343,-548.274,-61.449,-606.185,-172.414,-587.189C-287.326,-567.517,-372.431,-476.335,-456.482,-395.544C-547.973,-307.601,-649.335,-220.759,-681.377,-97.967C-714.954,30.706,-712.594,181.889,-635.421,290.187C-560.171,395.786,-413.554,411.897,-290.003,451.253C-195.041,481.502,-99.661,493.291,0,492.594" fill="rgba(30, 169, 82, 0.57)"></path><path d="M1440 1757.062C1565.623 1774.8980000000001 1693.026 1704.9769999999999 1786.521 1619.1979999999999 1873.395 1539.4940000000001 1883.6480000000001 1412.217 1932.713 1305.0140000000001 1981.83 1197.698 2081.524 1106.534 2075.094 988.687 2068.544 868.65 1982.79 768.45 1898.7440000000001 682.496 1818.219 600.143 1721.387 526.018 1607.29 510.26300000000003 1499.095 495.323 1400.69 559.91 1298.963 599.673 1206.435 635.8399999999999 1118.672 673.239 1038.892 732.438 939.9870000000001 805.828 807.824 865.1659999999999 779.608 985.05 751.371 1105.023 829.383 1225.344 898.933 1327.097 961.005 1417.908 1065.31 1460.592 1151.4279999999999 1529.026 1249.395 1606.877 1316.11 1739.472 1440 1757.062" fill="rgba(74, 223, 130, 0.57)"></path></g><defs><mask id="SvgjsMask1051"><rect width="1440" height="1080" fill="#ffffff"></rect></mask></defs></svg>